<svg width="1448" height="1440" viewBox="0 0 1448 1440" fill="none" xmlns="http://www.w3.org/2000/svg">
<g clip-path="url(#clip0_1614_34)">
<mask id="path-3-inside-1_1614_34" fill="white">
<path d="M-44 0H52V96H-44V0Z"/>
</mask>
<path d="M52 96V97H53V96H52ZM51 0V96H53V0H51ZM52 95H-44V97H52V95Z" fill="#D0D5DD" mask="url(#path-3-inside-1_1614_34)"/>
<mask id="path-5-inside-2_1614_34" fill="white">
<path d="M52 0H148V96H52V0Z"/>
</mask>
<path d="M148 96V97H149V96H148ZM147 0V96H149V0H147ZM148 95H52V97H148V95Z" fill="#D0D5DD" mask="url(#path-5-inside-2_1614_34)"/>
<mask id="path-7-inside-3_1614_34" fill="white">
<path d="M148 0H244V96H148V0Z"/>
</mask>
<path d="M244 96V97H245V96H244ZM243 0V96H245V0H243ZM244 95H148V97H244V95Z" fill="#D0D5DD" mask="url(#path-7-inside-3_1614_34)"/>
<mask id="path-9-inside-4_1614_34" fill="white">
<path d="M244 0H340V96H244V0Z"/>
</mask>
<path d="M340 96V97H341V96H340ZM339 0V96H341V0H339ZM340 95H244V97H340V95Z" fill="#D0D5DD" mask="url(#path-9-inside-4_1614_34)"/>
<mask id="path-11-inside-5_1614_34" fill="white">
<path d="M340 0H436V96H340V0Z"/>
</mask>
<path d="M436 96V97H437V96H436ZM435 0V96H437V0H435ZM436 95H340V97H436V95Z" fill="#D0D5DD" mask="url(#path-11-inside-5_1614_34)"/>
<mask id="path-13-inside-6_1614_34" fill="white">
<path d="M436 0H532V96H436V0Z"/>
</mask>
<path d="M532 96V97H533V96H532ZM531 0V96H533V0H531ZM532 95H436V97H532V95Z" fill="#D0D5DD" mask="url(#path-13-inside-6_1614_34)"/>
<mask id="path-15-inside-7_1614_34" fill="white">
<path d="M532 0H628V96H532V0Z"/>
</mask>
<path d="M628 96V97H629V96H628ZM627 0V96H629V0H627ZM628 95H532V97H628V95Z" fill="#D0D5DD" mask="url(#path-15-inside-7_1614_34)"/>
<mask id="path-17-inside-8_1614_34" fill="white">
<path d="M628 0H724V96H628V0Z"/>
</mask>
<path d="M724 96V97H725V96H724ZM723 0V96H725V0H723ZM724 95H628V97H724V95Z" fill="#D0D5DD" mask="url(#path-17-inside-8_1614_34)"/>
<mask id="path-19-inside-9_1614_34" fill="white">
<path d="M724 0H820V96H724V0Z"/>
</mask>
<path d="M820 96V97H821V96H820ZM819 0V96H821V0H819ZM820 95H724V97H820V95Z" fill="#D0D5DD" mask="url(#path-19-inside-9_1614_34)"/>
<mask id="path-21-inside-10_1614_34" fill="white">
<path d="M820 0H916V96H820V0Z"/>
</mask>
<path d="M916 96V97H917V96H916ZM915 0V96H917V0H915ZM916 95H820V97H916V95Z" fill="#D0D5DD" mask="url(#path-21-inside-10_1614_34)"/>
<mask id="path-23-inside-11_1614_34" fill="white">
<path d="M916 0H1012V96H916V0Z"/>
</mask>
<path d="M1012 96V97H1013V96H1012ZM1011 0V96H1013V0H1011ZM1012 95H916V97H1012V95Z" fill="#D0D5DD" mask="url(#path-23-inside-11_1614_34)"/>
<mask id="path-25-inside-12_1614_34" fill="white">
<path d="M1012 0H1108V96H1012V0Z"/>
</mask>
<path d="M1108 96V97H1109V96H1108ZM1107 0V96H1109V0H1107ZM1108 95H1012V97H1108V95Z" fill="#D0D5DD" mask="url(#path-25-inside-12_1614_34)"/>
<mask id="path-27-inside-13_1614_34" fill="white">
<path d="M1108 0H1204V96H1108V0Z"/>
</mask>
<path d="M1204 96V97H1205V96H1204ZM1203 0V96H1205V0H1203ZM1204 95H1108V97H1204V95Z" fill="#D0D5DD" mask="url(#path-27-inside-13_1614_34)"/>
<mask id="path-29-inside-14_1614_34" fill="white">
<path d="M1204 0H1300V96H1204V0Z"/>
</mask>
<path d="M1300 96V97H1301V96H1300ZM1299 0V96H1301V0H1299ZM1300 95H1204V97H1300V95Z" fill="#D0D5DD" mask="url(#path-29-inside-14_1614_34)"/>
<mask id="path-31-inside-15_1614_34" fill="white">
<path d="M1300 0H1396V96H1300V0Z"/>
</mask>
<path d="M1396 96V97H1397V96H1396ZM1395 0V96H1397V0H1395ZM1396 95H1300V97H1396V95Z" fill="#D0D5DD" mask="url(#path-31-inside-15_1614_34)"/>
<mask id="path-33-inside-16_1614_34" fill="white">
<path d="M1396 0H1492V96H1396V0Z"/>
</mask>
<path d="M1492 96V97H1493V96H1492ZM1491 0V96H1493V0H1491ZM1492 95H1396V97H1492V95Z" fill="#D0D5DD" mask="url(#path-33-inside-16_1614_34)"/>
<mask id="path-35-inside-17_1614_34" fill="white">
<path d="M-44 96H52V192H-44V96Z"/>
</mask>
<path d="M52 192V193H53V192H52ZM51 96V192H53V96H51ZM52 191H-44V193H52V191Z" fill="#D0D5DD" mask="url(#path-35-inside-17_1614_34)"/>
<mask id="path-37-inside-18_1614_34" fill="white">
<path d="M52 96H148V192H52V96Z"/>
</mask>
<path d="M148 192V193H149V192H148ZM147 96V192H149V96H147ZM148 191H52V193H148V191Z" fill="#D0D5DD" mask="url(#path-37-inside-18_1614_34)"/>
<mask id="path-39-inside-19_1614_34" fill="white">
<path d="M148 96H244V192H148V96Z"/>
</mask>
<path d="M244 192V193H245V192H244ZM243 96V192H245V96H243ZM244 191H148V193H244V191Z" fill="#D0D5DD" mask="url(#path-39-inside-19_1614_34)"/>
<mask id="path-41-inside-20_1614_34" fill="white">
<path d="M244 96H340V192H244V96Z"/>
</mask>
<path d="M244 96H340V192H244V96Z" fill="#F2F4F7"/>
<path d="M340 192V193H341V192H340ZM339 96V192H341V96H339ZM340 191H244V193H340V191Z" fill="#D0D5DD" mask="url(#path-41-inside-20_1614_34)"/>
<mask id="path-43-inside-21_1614_34" fill="white">
<path d="M340 96H436V192H340V96Z"/>
</mask>
<path d="M436 192V193H437V192H436ZM435 96V192H437V96H435ZM436 191H340V193H436V191Z" fill="#D0D5DD" mask="url(#path-43-inside-21_1614_34)"/>
<mask id="path-45-inside-22_1614_34" fill="white">
<path d="M436 96H532V192H436V96Z"/>
</mask>
<path d="M532 192V193H533V192H532ZM531 96V192H533V96H531ZM532 191H436V193H532V191Z" fill="#D0D5DD" mask="url(#path-45-inside-22_1614_34)"/>
<mask id="path-47-inside-23_1614_34" fill="white">
<path d="M532 96H628V192H532V96Z"/>
</mask>
<path d="M628 192V193H629V192H628ZM627 96V192H629V96H627ZM628 191H532V193H628V191Z" fill="#D0D5DD" mask="url(#path-47-inside-23_1614_34)"/>
<mask id="path-49-inside-24_1614_34" fill="white">
<path d="M628 96H724V192H628V96Z"/>
</mask>
<path d="M724 192V193H725V192H724ZM723 96V192H725V96H723ZM724 191H628V193H724V191Z" fill="#D0D5DD" mask="url(#path-49-inside-24_1614_34)"/>
<mask id="path-51-inside-25_1614_34" fill="white">
<path d="M724 96H820V192H724V96Z"/>
</mask>
<path d="M820 192V193H821V192H820ZM819 96V192H821V96H819ZM820 191H724V193H820V191Z" fill="#D0D5DD" mask="url(#path-51-inside-25_1614_34)"/>
<mask id="path-53-inside-26_1614_34" fill="white">
<path d="M820 96H916V192H820V96Z"/>
</mask>
<path d="M916 192V193H917V192H916ZM915 96V192H917V96H915ZM916 191H820V193H916V191Z" fill="#D0D5DD" mask="url(#path-53-inside-26_1614_34)"/>
<mask id="path-55-inside-27_1614_34" fill="white">
<path d="M916 96H1012V192H916V96Z"/>
</mask>
<path d="M1012 192V193H1013V192H1012ZM1011 96V192H1013V96H1011ZM1012 191H916V193H1012V191Z" fill="#D0D5DD" mask="url(#path-55-inside-27_1614_34)"/>
<mask id="path-57-inside-28_1614_34" fill="white">
<path d="M1012 96H1108V192H1012V96Z"/>
</mask>
<path d="M1108 192V193H1109V192H1108ZM1107 96V192H1109V96H1107ZM1108 191H1012V193H1108V191Z" fill="#D0D5DD" mask="url(#path-57-inside-28_1614_34)"/>
<mask id="path-59-inside-29_1614_34" fill="white">
<path d="M1108 96H1204V192H1108V96Z"/>
</mask>
<path d="M1108 96H1204V192H1108V96Z" fill="#F2F4F7"/>
<path d="M1204 192V193H1205V192H1204ZM1203 96V192H1205V96H1203ZM1204 191H1108V193H1204V191Z" fill="#D0D5DD" mask="url(#path-59-inside-29_1614_34)"/>
<mask id="path-61-inside-30_1614_34" fill="white">
<path d="M1204 96H1300V192H1204V96Z"/>
</mask>
<path d="M1300 192V193H1301V192H1300ZM1299 96V192H1301V96H1299ZM1300 191H1204V193H1300V191Z" fill="#D0D5DD" mask="url(#path-61-inside-30_1614_34)"/>
<mask id="path-63-inside-31_1614_34" fill="white">
<path d="M1300 96H1396V192H1300V96Z"/>
</mask>
<path d="M1396 192V193H1397V192H1396ZM1395 96V192H1397V96H1395ZM1396 191H1300V193H1396V191Z" fill="#D0D5DD" mask="url(#path-63-inside-31_1614_34)"/>
<mask id="path-65-inside-32_1614_34" fill="white">
<path d="M1396 96H1492V192H1396V96Z"/>
</mask>
<path d="M1492 192V193H1493V192H1492ZM1491 96V192H1493V96H1491ZM1492 191H1396V193H1492V191Z" fill="#D0D5DD" mask="url(#path-65-inside-32_1614_34)"/>
<mask id="path-67-inside-33_1614_34" fill="white">
<path d="M-44 192H52V288H-44V192Z"/>
</mask>
<path d="M52 288V289H53V288H52ZM51 192V288H53V192H51ZM52 287H-44V289H52V287Z" fill="#D0D5DD" mask="url(#path-67-inside-33_1614_34)"/>
<mask id="path-69-inside-34_1614_34" fill="white">
<path d="M52 192H148V288H52V192Z"/>
</mask>
<path d="M148 288V289H149V288H148ZM147 192V288H149V192H147ZM148 287H52V289H148V287Z" fill="#D0D5DD" mask="url(#path-69-inside-34_1614_34)"/>
<mask id="path-71-inside-35_1614_34" fill="white">
<path d="M148 192H244V288H148V192Z"/>
</mask>
<path d="M244 288V289H245V288H244ZM243 192V288H245V192H243ZM244 287H148V289H244V287Z" fill="#D0D5DD" mask="url(#path-71-inside-35_1614_34)"/>
<mask id="path-73-inside-36_1614_34" fill="white">
<path d="M244 192H340V288H244V192Z"/>
</mask>
<path d="M340 288V289H341V288H340ZM339 192V288H341V192H339ZM340 287H244V289H340V287Z" fill="#D0D5DD" mask="url(#path-73-inside-36_1614_34)"/>
<mask id="path-75-inside-37_1614_34" fill="white">
<path d="M340 192H436V288H340V192Z"/>
</mask>
<path d="M436 288V289H437V288H436ZM435 192V288H437V192H435ZM436 287H340V289H436V287Z" fill="#D0D5DD" mask="url(#path-75-inside-37_1614_34)"/>
<mask id="path-77-inside-38_1614_34" fill="white">
<path d="M436 192H532V288H436V192Z"/>
</mask>
<path d="M436 192H532V288H436V192Z" fill="#F2F4F7"/>
<path d="M532 288V289H533V288H532ZM531 192V288H533V192H531ZM532 287H436V289H532V287Z" fill="#D0D5DD" mask="url(#path-77-inside-38_1614_34)"/>
<mask id="path-79-inside-39_1614_34" fill="white">
<path d="M532 192H628V288H532V192Z"/>
</mask>
<path d="M628 288V289H629V288H628ZM627 192V288H629V192H627ZM628 287H532V289H628V287Z" fill="#D0D5DD" mask="url(#path-79-inside-39_1614_34)"/>
<mask id="path-81-inside-40_1614_34" fill="white">
<path d="M628 192H724V288H628V192Z"/>
</mask>
<path d="M724 288V289H725V288H724ZM723 192V288H725V192H723ZM724 287H628V289H724V287Z" fill="#D0D5DD" mask="url(#path-81-inside-40_1614_34)"/>
<mask id="path-83-inside-41_1614_34" fill="white">
<path d="M724 192H820V288H724V192Z"/>
</mask>
<path d="M820 288V289H821V288H820ZM819 192V288H821V192H819ZM820 287H724V289H820V287Z" fill="#D0D5DD" mask="url(#path-83-inside-41_1614_34)"/>
<mask id="path-85-inside-42_1614_34" fill="white">
<path d="M820 192H916V288H820V192Z"/>
</mask>
<path d="M820 192H916V288H820V192Z" fill="#F2F4F7"/>
<path d="M916 288V289H917V288H916ZM915 192V288H917V192H915ZM916 287H820V289H916V287Z" fill="#D0D5DD" mask="url(#path-85-inside-42_1614_34)"/>
<mask id="path-87-inside-43_1614_34" fill="white">
<path d="M916 192H1012V288H916V192Z"/>
</mask>
<path d="M1012 288V289H1013V288H1012ZM1011 192V288H1013V192H1011ZM1012 287H916V289H1012V287Z" fill="#D0D5DD" mask="url(#path-87-inside-43_1614_34)"/>
<mask id="path-89-inside-44_1614_34" fill="white">
<path d="M1012 192H1108V288H1012V192Z"/>
</mask>
<path d="M1108 288V289H1109V288H1108ZM1107 192V288H1109V192H1107ZM1108 287H1012V289H1108V287Z" fill="#D0D5DD" mask="url(#path-89-inside-44_1614_34)"/>
<mask id="path-91-inside-45_1614_34" fill="white">
<path d="M1108 192H1204V288H1108V192Z"/>
</mask>
<path d="M1204 288V289H1205V288H1204ZM1203 192V288H1205V192H1203ZM1204 287H1108V289H1204V287Z" fill="#D0D5DD" mask="url(#path-91-inside-45_1614_34)"/>
<mask id="path-93-inside-46_1614_34" fill="white">
<path d="M1204 192H1300V288H1204V192Z"/>
</mask>
<path d="M1300 288V289H1301V288H1300ZM1299 192V288H1301V192H1299ZM1300 287H1204V289H1300V287Z" fill="#D0D5DD" mask="url(#path-93-inside-46_1614_34)"/>
<mask id="path-95-inside-47_1614_34" fill="white">
<path d="M1300 192H1396V288H1300V192Z"/>
</mask>
<path d="M1396 288V289H1397V288H1396ZM1395 192V288H1397V192H1395ZM1396 287H1300V289H1396V287Z" fill="#D0D5DD" mask="url(#path-95-inside-47_1614_34)"/>
<mask id="path-97-inside-48_1614_34" fill="white">
<path d="M1396 192H1492V288H1396V192Z"/>
</mask>
<path d="M1492 288V289H1493V288H1492ZM1491 192V288H1493V192H1491ZM1492 287H1396V289H1492V287Z" fill="#D0D5DD" mask="url(#path-97-inside-48_1614_34)"/>
<mask id="path-99-inside-49_1614_34" fill="white">
<path d="M-44 288H52V384H-44V288Z"/>
</mask>
<path d="M-44 288H52V384H-44V288Z" fill="#F2F4F7"/>
<path d="M52 384V385H53V384H52ZM51 288V384H53V288H51ZM52 383H-44V385H52V383Z" fill="#D0D5DD" mask="url(#path-99-inside-49_1614_34)"/>
<mask id="path-101-inside-50_1614_34" fill="white">
<path d="M52 288H148V384H52V288Z"/>
</mask>
<path d="M148 384V385H149V384H148ZM147 288V384H149V288H147ZM148 383H52V385H148V383Z" fill="#D0D5DD" mask="url(#path-101-inside-50_1614_34)"/>
<mask id="path-103-inside-51_1614_34" fill="white">
<path d="M148 288H244V384H148V288Z"/>
</mask>
<path d="M244 384V385H245V384H244ZM243 288V384H245V288H243ZM244 383H148V385H244V383Z" fill="#D0D5DD" mask="url(#path-103-inside-51_1614_34)"/>
<mask id="path-105-inside-52_1614_34" fill="white">
<path d="M244 288H340V384H244V288Z"/>
</mask>
<path d="M340 384V385H341V384H340ZM339 288V384H341V288H339ZM340 383H244V385H340V383Z" fill="#D0D5DD" mask="url(#path-105-inside-52_1614_34)"/>
<mask id="path-107-inside-53_1614_34" fill="white">
<path d="M340 288H436V384H340V288Z"/>
</mask>
<path d="M436 384V385H437V384H436ZM435 288V384H437V288H435ZM436 383H340V385H436V383Z" fill="#D0D5DD" mask="url(#path-107-inside-53_1614_34)"/>
<mask id="path-109-inside-54_1614_34" fill="white">
<path d="M436 288H532V384H436V288Z"/>
</mask>
<path d="M532 384V385H533V384H532ZM531 288V384H533V288H531ZM532 383H436V385H532V383Z" fill="#D0D5DD" mask="url(#path-109-inside-54_1614_34)"/>
<mask id="path-111-inside-55_1614_34" fill="white">
<path d="M532 288H628V384H532V288Z"/>
</mask>
<path d="M628 384V385H629V384H628ZM627 288V384H629V288H627ZM628 383H532V385H628V383Z" fill="#D0D5DD" mask="url(#path-111-inside-55_1614_34)"/>
<mask id="path-113-inside-56_1614_34" fill="white">
<path d="M628 288H724V384H628V288Z"/>
</mask>
<path d="M724 384V385H725V384H724ZM723 288V384H725V288H723ZM724 383H628V385H724V383Z" fill="#D0D5DD" mask="url(#path-113-inside-56_1614_34)"/>
<mask id="path-115-inside-57_1614_34" fill="white">
<path d="M724 288H820V384H724V288Z"/>
</mask>
<path d="M820 384V385H821V384H820ZM819 288V384H821V288H819ZM820 383H724V385H820V383Z" fill="#D0D5DD" mask="url(#path-115-inside-57_1614_34)"/>
<mask id="path-117-inside-58_1614_34" fill="white">
<path d="M820 288H916V384H820V288Z"/>
</mask>
<path d="M916 384V385H917V384H916ZM915 288V384H917V288H915ZM916 383H820V385H916V383Z" fill="#D0D5DD" mask="url(#path-117-inside-58_1614_34)"/>
<mask id="path-119-inside-59_1614_34" fill="white">
<path d="M916 288H1012V384H916V288Z"/>
</mask>
<path d="M1012 384V385H1013V384H1012ZM1011 288V384H1013V288H1011ZM1012 383H916V385H1012V383Z" fill="#D0D5DD" mask="url(#path-119-inside-59_1614_34)"/>
<mask id="path-121-inside-60_1614_34" fill="white">
<path d="M1012 288H1108V384H1012V288Z"/>
</mask>
<path d="M1108 384V385H1109V384H1108ZM1107 288V384H1109V288H1107ZM1108 383H1012V385H1108V383Z" fill="#D0D5DD" mask="url(#path-121-inside-60_1614_34)"/>
<mask id="path-123-inside-61_1614_34" fill="white">
<path d="M1108 288H1204V384H1108V288Z"/>
</mask>
<path d="M1108 288H1204V384H1108V288Z" fill="#F2F4F7"/>
<path d="M1204 384V385H1205V384H1204ZM1203 288V384H1205V288H1203ZM1204 383H1108V385H1204V383Z" fill="#D0D5DD" mask="url(#path-123-inside-61_1614_34)"/>
<mask id="path-125-inside-62_1614_34" fill="white">
<path d="M1204 288H1300V384H1204V288Z"/>
</mask>
<path d="M1300 384V385H1301V384H1300ZM1299 288V384H1301V288H1299ZM1300 383H1204V385H1300V383Z" fill="#D0D5DD" mask="url(#path-125-inside-62_1614_34)"/>
<mask id="path-127-inside-63_1614_34" fill="white">
<path d="M1300 288H1396V384H1300V288Z"/>
</mask>
<path d="M1396 384V385H1397V384H1396ZM1395 288V384H1397V288H1395ZM1396 383H1300V385H1396V383Z" fill="#D0D5DD" mask="url(#path-127-inside-63_1614_34)"/>
<mask id="path-129-inside-64_1614_34" fill="white">
<path d="M1396 288H1492V384H1396V288Z"/>
</mask>
<path d="M1492 384V385H1493V384H1492ZM1491 288V384H1493V288H1491ZM1492 383H1396V385H1492V383Z" fill="#D0D5DD" mask="url(#path-129-inside-64_1614_34)"/>
<mask id="path-131-inside-65_1614_34" fill="white">
<path d="M-44 384H52V480H-44V384Z"/>
</mask>
<path d="M52 480V481H53V480H52ZM51 384V480H53V384H51ZM52 479H-44V481H52V479Z" fill="#D0D5DD" mask="url(#path-131-inside-65_1614_34)"/>
<mask id="path-133-inside-66_1614_34" fill="white">
<path d="M52 384H148V480H52V384Z"/>
</mask>
<path d="M148 480V481H149V480H148ZM147 384V480H149V384H147ZM148 479H52V481H148V479Z" fill="#D0D5DD" mask="url(#path-133-inside-66_1614_34)"/>
<mask id="path-135-inside-67_1614_34" fill="white">
<path d="M148 384H244V480H148V384Z"/>
</mask>
<path d="M244 480V481H245V480H244ZM243 384V480H245V384H243ZM244 479H148V481H244V479Z" fill="#D0D5DD" mask="url(#path-135-inside-67_1614_34)"/>
<mask id="path-137-inside-68_1614_34" fill="white">
<path d="M244 384H340V480H244V384Z"/>
</mask>
<path d="M340 480V481H341V480H340ZM339 384V480H341V384H339ZM340 479H244V481H340V479Z" fill="#D0D5DD" mask="url(#path-137-inside-68_1614_34)"/>
<mask id="path-139-inside-69_1614_34" fill="white">
<path d="M340 384H436V480H340V384Z"/>
</mask>
<path d="M436 480V481H437V480H436ZM435 384V480H437V384H435ZM436 479H340V481H436V479Z" fill="#D0D5DD" mask="url(#path-139-inside-69_1614_34)"/>
<mask id="path-141-inside-70_1614_34" fill="white">
<path d="M436 384H532V480H436V384Z"/>
</mask>
<path d="M532 480V481H533V480H532ZM531 384V480H533V384H531ZM532 479H436V481H532V479Z" fill="#D0D5DD" mask="url(#path-141-inside-70_1614_34)"/>
<mask id="path-143-inside-71_1614_34" fill="white">
<path d="M532 384H628V480H532V384Z"/>
</mask>
<path d="M532 384H628V480H532V384Z" fill="#F2F4F7"/>
<path d="M628 480V481H629V480H628ZM627 384V480H629V384H627ZM628 479H532V481H628V479Z" fill="#D0D5DD" mask="url(#path-143-inside-71_1614_34)"/>
<mask id="path-145-inside-72_1614_34" fill="white">
<path d="M628 384H724V480H628V384Z"/>
</mask>
<path d="M724 480V481H725V480H724ZM723 384V480H725V384H723ZM724 479H628V481H724V479Z" fill="#D0D5DD" mask="url(#path-145-inside-72_1614_34)"/>
<mask id="path-147-inside-73_1614_34" fill="white">
<path d="M724 384H820V480H724V384Z"/>
</mask>
<path d="M820 480V481H821V480H820ZM819 384V480H821V384H819ZM820 479H724V481H820V479Z" fill="#D0D5DD" mask="url(#path-147-inside-73_1614_34)"/>
<mask id="path-149-inside-74_1614_34" fill="white">
<path d="M820 384H916V480H820V384Z"/>
</mask>
<path d="M916 480V481H917V480H916ZM915 384V480H917V384H915ZM916 479H820V481H916V479Z" fill="#D0D5DD" mask="url(#path-149-inside-74_1614_34)"/>
<mask id="path-151-inside-75_1614_34" fill="white">
<path d="M916 384H1012V480H916V384Z"/>
</mask>
<path d="M1012 480V481H1013V480H1012ZM1011 384V480H1013V384H1011ZM1012 479H916V481H1012V479Z" fill="#D0D5DD" mask="url(#path-151-inside-75_1614_34)"/>
<mask id="path-153-inside-76_1614_34" fill="white">
<path d="M1012 384H1108V480H1012V384Z"/>
</mask>
<path d="M1108 480V481H1109V480H1108ZM1107 384V480H1109V384H1107ZM1108 479H1012V481H1108V479Z" fill="#D0D5DD" mask="url(#path-153-inside-76_1614_34)"/>
<mask id="path-155-inside-77_1614_34" fill="white">
<path d="M1108 384H1204V480H1108V384Z"/>
</mask>
<path d="M1204 480V481H1205V480H1204ZM1203 384V480H1205V384H1203ZM1204 479H1108V481H1204V479Z" fill="#D0D5DD" mask="url(#path-155-inside-77_1614_34)"/>
<mask id="path-157-inside-78_1614_34" fill="white">
<path d="M1204 384H1300V480H1204V384Z"/>
</mask>
<path d="M1300 480V481H1301V480H1300ZM1299 384V480H1301V384H1299ZM1300 479H1204V481H1300V479Z" fill="#D0D5DD" mask="url(#path-157-inside-78_1614_34)"/>
<mask id="path-159-inside-79_1614_34" fill="white">
<path d="M1300 384H1396V480H1300V384Z"/>
</mask>
<path d="M1396 480V481H1397V480H1396ZM1395 384V480H1397V384H1395ZM1396 479H1300V481H1396V479Z" fill="#D0D5DD" mask="url(#path-159-inside-79_1614_34)"/>
<mask id="path-161-inside-80_1614_34" fill="white">
<path d="M1396 384H1492V480H1396V384Z"/>
</mask>
<path d="M1492 480V481H1493V480H1492ZM1491 384V480H1493V384H1491ZM1492 479H1396V481H1492V479Z" fill="#D0D5DD" mask="url(#path-161-inside-80_1614_34)"/>
<mask id="path-163-inside-81_1614_34" fill="white">
<path d="M-44 480H52V576H-44V480Z"/>
</mask>
<path d="M52 576V577H53V576H52ZM51 480V576H53V480H51ZM52 575H-44V577H52V575Z" fill="#D0D5DD" mask="url(#path-163-inside-81_1614_34)"/>
<mask id="path-165-inside-82_1614_34" fill="white">
<path d="M52 480H148V576H52V480Z"/>
</mask>
<path d="M148 576V577H149V576H148ZM147 480V576H149V480H147ZM148 575H52V577H148V575Z" fill="#D0D5DD" mask="url(#path-165-inside-82_1614_34)"/>
<mask id="path-167-inside-83_1614_34" fill="white">
<path d="M148 480H244V576H148V480Z"/>
</mask>
<path d="M244 576V577H245V576H244ZM243 480V576H245V480H243ZM244 575H148V577H244V575Z" fill="#D0D5DD" mask="url(#path-167-inside-83_1614_34)"/>
<mask id="path-169-inside-84_1614_34" fill="white">
<path d="M244 480H340V576H244V480Z"/>
</mask>
<path d="M244 480H340V576H244V480Z" fill="#F2F4F7"/>
<path d="M340 576V577H341V576H340ZM339 480V576H341V480H339ZM340 575H244V577H340V575Z" fill="#D0D5DD" mask="url(#path-169-inside-84_1614_34)"/>
<mask id="path-171-inside-85_1614_34" fill="white">
<path d="M340 480H436V576H340V480Z"/>
</mask>
<path d="M436 576V577H437V576H436ZM435 480V576H437V480H435ZM436 575H340V577H436V575Z" fill="#D0D5DD" mask="url(#path-171-inside-85_1614_34)"/>
<mask id="path-173-inside-86_1614_34" fill="white">
<path d="M436 480H532V576H436V480Z"/>
</mask>
<path d="M532 576V577H533V576H532ZM531 480V576H533V480H531ZM532 575H436V577H532V575Z" fill="#D0D5DD" mask="url(#path-173-inside-86_1614_34)"/>
<mask id="path-175-inside-87_1614_34" fill="white">
<path d="M532 480H628V576H532V480Z"/>
</mask>
<path d="M628 576V577H629V576H628ZM627 480V576H629V480H627ZM628 575H532V577H628V575Z" fill="#D0D5DD" mask="url(#path-175-inside-87_1614_34)"/>
<mask id="path-177-inside-88_1614_34" fill="white">
<path d="M628 480H724V576H628V480Z"/>
</mask>
<path d="M724 576V577H725V576H724ZM723 480V576H725V480H723ZM724 575H628V577H724V575Z" fill="#D0D5DD" mask="url(#path-177-inside-88_1614_34)"/>
<mask id="path-179-inside-89_1614_34" fill="white">
<path d="M724 480H820V576H724V480Z"/>
</mask>
<path d="M820 576V577H821V576H820ZM819 480V576H821V480H819ZM820 575H724V577H820V575Z" fill="#D0D5DD" mask="url(#path-179-inside-89_1614_34)"/>
<mask id="path-181-inside-90_1614_34" fill="white">
<path d="M820 480H916V576H820V480Z"/>
</mask>
<path d="M820 480H916V576H820V480Z" fill="#F2F4F7"/>
<path d="M916 576V577H917V576H916ZM915 480V576H917V480H915ZM916 575H820V577H916V575Z" fill="#D0D5DD" mask="url(#path-181-inside-90_1614_34)"/>
<mask id="path-183-inside-91_1614_34" fill="white">
<path d="M916 480H1012V576H916V480Z"/>
</mask>
<path d="M1012 576V577H1013V576H1012ZM1011 480V576H1013V480H1011ZM1012 575H916V577H1012V575Z" fill="#D0D5DD" mask="url(#path-183-inside-91_1614_34)"/>
<mask id="path-185-inside-92_1614_34" fill="white">
<path d="M1012 480H1108V576H1012V480Z"/>
</mask>
<path d="M1108 576V577H1109V576H1108ZM1107 480V576H1109V480H1107ZM1108 575H1012V577H1108V575Z" fill="#D0D5DD" mask="url(#path-185-inside-92_1614_34)"/>
<mask id="path-187-inside-93_1614_34" fill="white">
<path d="M1108 480H1204V576H1108V480Z"/>
</mask>
<path d="M1204 576V577H1205V576H1204ZM1203 480V576H1205V480H1203ZM1204 575H1108V577H1204V575Z" fill="#D0D5DD" mask="url(#path-187-inside-93_1614_34)"/>
<mask id="path-189-inside-94_1614_34" fill="white">
<path d="M1204 480H1300V576H1204V480Z"/>
</mask>
<path d="M1300 576V577H1301V576H1300ZM1299 480V576H1301V480H1299ZM1300 575H1204V577H1300V575Z" fill="#D0D5DD" mask="url(#path-189-inside-94_1614_34)"/>
<mask id="path-191-inside-95_1614_34" fill="white">
<path d="M1300 480H1396V576H1300V480Z"/>
</mask>
<path d="M1396 576V577H1397V576H1396ZM1395 480V576H1397V480H1395ZM1396 575H1300V577H1396V575Z" fill="#D0D5DD" mask="url(#path-191-inside-95_1614_34)"/>
<mask id="path-193-inside-96_1614_34" fill="white">
<path d="M1396 480H1492V576H1396V480Z"/>
</mask>
<path d="M1492 576V577H1493V576H1492ZM1491 480V576H1493V480H1491ZM1492 575H1396V577H1492V575Z" fill="#D0D5DD" mask="url(#path-193-inside-96_1614_34)"/>
<mask id="path-195-inside-97_1614_34" fill="white">
<path d="M-44 576H52V672H-44V576Z"/>
</mask>
<path d="M52 672V673H53V672H52ZM51 576V672H53V576H51ZM52 671H-44V673H52V671Z" fill="#D0D5DD" mask="url(#path-195-inside-97_1614_34)"/>
<mask id="path-197-inside-98_1614_34" fill="white">
<path d="M52 576H148V672H52V576Z"/>
</mask>
<path d="M52 576H148V672H52V576Z" fill="#F2F4F7"/>
<path d="M148 672V673H149V672H148ZM147 576V672H149V576H147ZM148 671H52V673H148V671Z" fill="#D0D5DD" mask="url(#path-197-inside-98_1614_34)"/>
<mask id="path-199-inside-99_1614_34" fill="white">
<path d="M148 576H244V672H148V576Z"/>
</mask>
<path d="M244 672V673H245V672H244ZM243 576V672H245V576H243ZM244 671H148V673H244V671Z" fill="#D0D5DD" mask="url(#path-199-inside-99_1614_34)"/>
<mask id="path-201-inside-100_1614_34" fill="white">
<path d="M244 576H340V672H244V576Z"/>
</mask>
<path d="M340 672V673H341V672H340ZM339 576V672H341V576H339ZM340 671H244V673H340V671Z" fill="#D0D5DD" mask="url(#path-201-inside-100_1614_34)"/>
<mask id="path-203-inside-101_1614_34" fill="white">
<path d="M340 576H436V672H340V576Z"/>
</mask>
<path d="M436 672V673H437V672H436ZM435 576V672H437V576H435ZM436 671H340V673H436V671Z" fill="#D0D5DD" mask="url(#path-203-inside-101_1614_34)"/>
<mask id="path-205-inside-102_1614_34" fill="white">
<path d="M436 576H532V672H436V576Z"/>
</mask>
<path d="M532 672V673H533V672H532ZM531 576V672H533V576H531ZM532 671H436V673H532V671Z" fill="#D0D5DD" mask="url(#path-205-inside-102_1614_34)"/>
<mask id="path-207-inside-103_1614_34" fill="white">
<path d="M532 576H628V672H532V576Z"/>
</mask>
<path d="M628 672V673H629V672H628ZM627 576V672H629V576H627ZM628 671H532V673H628V671Z" fill="#D0D5DD" mask="url(#path-207-inside-103_1614_34)"/>
<mask id="path-209-inside-104_1614_34" fill="white">
<path d="M628 576H724V672H628V576Z"/>
</mask>
<path d="M724 672V673H725V672H724ZM723 576V672H725V576H723ZM724 671H628V673H724V671Z" fill="#D0D5DD" mask="url(#path-209-inside-104_1614_34)"/>
<mask id="path-211-inside-105_1614_34" fill="white">
<path d="M724 576H820V672H724V576Z"/>
</mask>
<path d="M820 672V673H821V672H820ZM819 576V672H821V576H819ZM820 671H724V673H820V671Z" fill="#D0D5DD" mask="url(#path-211-inside-105_1614_34)"/>
<mask id="path-213-inside-106_1614_34" fill="white">
<path d="M820 576H916V672H820V576Z"/>
</mask>
<path d="M916 672V673H917V672H916ZM915 576V672H917V576H915ZM916 671H820V673H916V671Z" fill="#D0D5DD" mask="url(#path-213-inside-106_1614_34)"/>
<mask id="path-215-inside-107_1614_34" fill="white">
<path d="M916 576H1012V672H916V576Z"/>
</mask>
<path d="M1012 672V673H1013V672H1012ZM1011 576V672H1013V576H1011ZM1012 671H916V673H1012V671Z" fill="#D0D5DD" mask="url(#path-215-inside-107_1614_34)"/>
<mask id="path-217-inside-108_1614_34" fill="white">
<path d="M1012 576H1108V672H1012V576Z"/>
</mask>
<path d="M1108 672V673H1109V672H1108ZM1107 576V672H1109V576H1107ZM1108 671H1012V673H1108V671Z" fill="#D0D5DD" mask="url(#path-217-inside-108_1614_34)"/>
<mask id="path-219-inside-109_1614_34" fill="white">
<path d="M1108 576H1204V672H1108V576Z"/>
</mask>
<path d="M1204 672V673H1205V672H1204ZM1203 576V672H1205V576H1203ZM1204 671H1108V673H1204V671Z" fill="#D0D5DD" mask="url(#path-219-inside-109_1614_34)"/>
<mask id="path-221-inside-110_1614_34" fill="white">
<path d="M1204 576H1300V672H1204V576Z"/>
</mask>
<path d="M1300 672V673H1301V672H1300ZM1299 576V672H1301V576H1299ZM1300 671H1204V673H1300V671Z" fill="#D0D5DD" mask="url(#path-221-inside-110_1614_34)"/>
<mask id="path-223-inside-111_1614_34" fill="white">
<path d="M1300 576H1396V672H1300V576Z"/>
</mask>
<path d="M1300 576H1396V672H1300V576Z" fill="#F2F4F7"/>
<path d="M1396 672V673H1397V672H1396ZM1395 576V672H1397V576H1395ZM1396 671H1300V673H1396V671Z" fill="#D0D5DD" mask="url(#path-223-inside-111_1614_34)"/>
<mask id="path-225-inside-112_1614_34" fill="white">
<path d="M1396 576H1492V672H1396V576Z"/>
</mask>
<path d="M1492 672V673H1493V672H1492ZM1491 576V672H1493V576H1491ZM1492 671H1396V673H1492V671Z" fill="#D0D5DD" mask="url(#path-225-inside-112_1614_34)"/>
<mask id="path-227-inside-113_1614_34" fill="white">
<path d="M-44 672H52V768H-44V672Z"/>
</mask>
<path d="M52 768V769H53V768H52ZM51 672V768H53V672H51ZM52 767H-44V769H52V767Z" fill="#D0D5DD" mask="url(#path-227-inside-113_1614_34)"/>
<mask id="path-229-inside-114_1614_34" fill="white">
<path d="M52 672H148V768H52V672Z"/>
</mask>
<path d="M148 768V769H149V768H148ZM147 672V768H149V672H147ZM148 767H52V769H148V767Z" fill="#D0D5DD" mask="url(#path-229-inside-114_1614_34)"/>
<mask id="path-231-inside-115_1614_34" fill="white">
<path d="M148 672H244V768H148V672Z"/>
</mask>
<path d="M244 768V769H245V768H244ZM243 672V768H245V672H243ZM244 767H148V769H244V767Z" fill="#D0D5DD" mask="url(#path-231-inside-115_1614_34)"/>
<mask id="path-233-inside-116_1614_34" fill="white">
<path d="M244 672H340V768H244V672Z"/>
</mask>
<path d="M340 768V769H341V768H340ZM339 672V768H341V672H339ZM340 767H244V769H340V767Z" fill="#D0D5DD" mask="url(#path-233-inside-116_1614_34)"/>
<mask id="path-235-inside-117_1614_34" fill="white">
<path d="M340 672H436V768H340V672Z"/>
</mask>
<path d="M436 768V769H437V768H436ZM435 672V768H437V672H435ZM436 767H340V769H436V767Z" fill="#D0D5DD" mask="url(#path-235-inside-117_1614_34)"/>
<mask id="path-237-inside-118_1614_34" fill="white">
<path d="M436 672H532V768H436V672Z"/>
</mask>
<path d="M532 768V769H533V768H532ZM531 672V768H533V672H531ZM532 767H436V769H532V767Z" fill="#D0D5DD" mask="url(#path-237-inside-118_1614_34)"/>
<mask id="path-239-inside-119_1614_34" fill="white">
<path d="M532 672H628V768H532V672Z"/>
</mask>
<path d="M532 672H628V768H532V672Z" fill="#F2F4F7"/>
<path d="M628 768V769H629V768H628ZM627 672V768H629V672H627ZM628 767H532V769H628V767Z" fill="#D0D5DD" mask="url(#path-239-inside-119_1614_34)"/>
<mask id="path-241-inside-120_1614_34" fill="white">
<path d="M628 672H724V768H628V672Z"/>
</mask>
<path d="M724 768V769H725V768H724ZM723 672V768H725V672H723ZM724 767H628V769H724V767Z" fill="#D0D5DD" mask="url(#path-241-inside-120_1614_34)"/>
<mask id="path-243-inside-121_1614_34" fill="white">
<path d="M724 672H820V768H724V672Z"/>
</mask>
<path d="M820 768V769H821V768H820ZM819 672V768H821V672H819ZM820 767H724V769H820V767Z" fill="#D0D5DD" mask="url(#path-243-inside-121_1614_34)"/>
<mask id="path-245-inside-122_1614_34" fill="white">
<path d="M820 672H916V768H820V672Z"/>
</mask>
<path d="M916 768V769H917V768H916ZM915 672V768H917V672H915ZM916 767H820V769H916V767Z" fill="#D0D5DD" mask="url(#path-245-inside-122_1614_34)"/>
<mask id="path-247-inside-123_1614_34" fill="white">
<path d="M916 672H1012V768H916V672Z"/>
</mask>
<path d="M1012 768V769H1013V768H1012ZM1011 672V768H1013V672H1011ZM1012 767H916V769H1012V767Z" fill="#D0D5DD" mask="url(#path-247-inside-123_1614_34)"/>
<mask id="path-249-inside-124_1614_34" fill="white">
<path d="M1012 672H1108V768H1012V672Z"/>
</mask>
<path d="M1108 768V769H1109V768H1108ZM1107 672V768H1109V672H1107ZM1108 767H1012V769H1108V767Z" fill="#D0D5DD" mask="url(#path-249-inside-124_1614_34)"/>
<mask id="path-251-inside-125_1614_34" fill="white">
<path d="M1108 672H1204V768H1108V672Z"/>
</mask>
<path d="M1108 672H1204V768H1108V672Z" fill="#F2F4F7"/>
<path d="M1204 768V769H1205V768H1204ZM1203 672V768H1205V672H1203ZM1204 767H1108V769H1204V767Z" fill="#D0D5DD" mask="url(#path-251-inside-125_1614_34)"/>
<mask id="path-253-inside-126_1614_34" fill="white">
<path d="M1204 672H1300V768H1204V672Z"/>
</mask>
<path d="M1300 768V769H1301V768H1300ZM1299 672V768H1301V672H1299ZM1300 767H1204V769H1300V767Z" fill="#D0D5DD" mask="url(#path-253-inside-126_1614_34)"/>
<mask id="path-255-inside-127_1614_34" fill="white">
<path d="M1300 672H1396V768H1300V672Z"/>
</mask>
<path d="M1396 768V769H1397V768H1396ZM1395 672V768H1397V672H1395ZM1396 767H1300V769H1396V767Z" fill="#D0D5DD" mask="url(#path-255-inside-127_1614_34)"/>
<mask id="path-257-inside-128_1614_34" fill="white">
<path d="M1396 672H1492V768H1396V672Z"/>
</mask>
<path d="M1492 768V769H1493V768H1492ZM1491 672V768H1493V672H1491ZM1492 767H1396V769H1492V767Z" fill="#D0D5DD" mask="url(#path-257-inside-128_1614_34)"/>
<mask id="path-259-inside-129_1614_34" fill="white">
<path d="M-44 768H52V864H-44V768Z"/>
</mask>
<path d="M52 864V865H53V864H52ZM51 768V864H53V768H51ZM52 863H-44V865H52V863Z" fill="#D0D5DD" mask="url(#path-259-inside-129_1614_34)"/>
<mask id="path-261-inside-130_1614_34" fill="white">
<path d="M52 768H148V864H52V768Z"/>
</mask>
<path d="M148 864V865H149V864H148ZM147 768V864H149V768H147ZM148 863H52V865H148V863Z" fill="#D0D5DD" mask="url(#path-261-inside-130_1614_34)"/>
<mask id="path-263-inside-131_1614_34" fill="white">
<path d="M148 768H244V864H148V768Z"/>
</mask>
<path d="M244 864V865H245V864H244ZM243 768V864H245V768H243ZM244 863H148V865H244V863Z" fill="#D0D5DD" mask="url(#path-263-inside-131_1614_34)"/>
<mask id="path-265-inside-132_1614_34" fill="white">
<path d="M244 768H340V864H244V768Z"/>
</mask>
<path d="M244 768H340V864H244V768Z" fill="#F2F4F7"/>
<path d="M340 864V865H341V864H340ZM339 768V864H341V768H339ZM340 863H244V865H340V863Z" fill="#D0D5DD" mask="url(#path-265-inside-132_1614_34)"/>
<mask id="path-267-inside-133_1614_34" fill="white">
<path d="M340 768H436V864H340V768Z"/>
</mask>
<path d="M436 864V865H437V864H436ZM435 768V864H437V768H435ZM436 863H340V865H436V863Z" fill="#D0D5DD" mask="url(#path-267-inside-133_1614_34)"/>
<mask id="path-269-inside-134_1614_34" fill="white">
<path d="M436 768H532V864H436V768Z"/>
</mask>
<path d="M532 864V865H533V864H532ZM531 768V864H533V768H531ZM532 863H436V865H532V863Z" fill="#D0D5DD" mask="url(#path-269-inside-134_1614_34)"/>
<mask id="path-271-inside-135_1614_34" fill="white">
<path d="M532 768H628V864H532V768Z"/>
</mask>
<path d="M628 864V865H629V864H628ZM627 768V864H629V768H627ZM628 863H532V865H628V863Z" fill="#D0D5DD" mask="url(#path-271-inside-135_1614_34)"/>
<mask id="path-273-inside-136_1614_34" fill="white">
<path d="M628 768H724V864H628V768Z"/>
</mask>
<path d="M724 864V865H725V864H724ZM723 768V864H725V768H723ZM724 863H628V865H724V863Z" fill="#D0D5DD" mask="url(#path-273-inside-136_1614_34)"/>
<mask id="path-275-inside-137_1614_34" fill="white">
<path d="M724 768H820V864H724V768Z"/>
</mask>
<path d="M820 864V865H821V864H820ZM819 768V864H821V768H819ZM820 863H724V865H820V863Z" fill="#D0D5DD" mask="url(#path-275-inside-137_1614_34)"/>
<mask id="path-277-inside-138_1614_34" fill="white">
<path d="M820 768H916V864H820V768Z"/>
</mask>
<path d="M820 768H916V864H820V768Z" fill="#F2F4F7"/>
<path d="M916 864V865H917V864H916ZM915 768V864H917V768H915ZM916 863H820V865H916V863Z" fill="#D0D5DD" mask="url(#path-277-inside-138_1614_34)"/>
<mask id="path-279-inside-139_1614_34" fill="white">
<path d="M916 768H1012V864H916V768Z"/>
</mask>
<path d="M1012 864V865H1013V864H1012ZM1011 768V864H1013V768H1011ZM1012 863H916V865H1012V863Z" fill="#D0D5DD" mask="url(#path-279-inside-139_1614_34)"/>
<mask id="path-281-inside-140_1614_34" fill="white">
<path d="M1012 768H1108V864H1012V768Z"/>
</mask>
<path d="M1108 864V865H1109V864H1108ZM1107 768V864H1109V768H1107ZM1108 863H1012V865H1108V863Z" fill="#D0D5DD" mask="url(#path-281-inside-140_1614_34)"/>
<mask id="path-283-inside-141_1614_34" fill="white">
<path d="M1108 768H1204V864H1108V768Z"/>
</mask>
<path d="M1204 864V865H1205V864H1204ZM1203 768V864H1205V768H1203ZM1204 863H1108V865H1204V863Z" fill="#D0D5DD" mask="url(#path-283-inside-141_1614_34)"/>
<mask id="path-285-inside-142_1614_34" fill="white">
<path d="M1204 768H1300V864H1204V768Z"/>
</mask>
<path d="M1300 864V865H1301V864H1300ZM1299 768V864H1301V768H1299ZM1300 863H1204V865H1300V863Z" fill="#D0D5DD" mask="url(#path-285-inside-142_1614_34)"/>
<mask id="path-287-inside-143_1614_34" fill="white">
<path d="M1300 768H1396V864H1300V768Z"/>
</mask>
<path d="M1396 864V865H1397V864H1396ZM1395 768V864H1397V768H1395ZM1396 863H1300V865H1396V863Z" fill="#D0D5DD" mask="url(#path-287-inside-143_1614_34)"/>
<mask id="path-289-inside-144_1614_34" fill="white">
<path d="M1396 768H1492V864H1396V768Z"/>
</mask>
<path d="M1492 864V865H1493V864H1492ZM1491 768V864H1493V768H1491ZM1492 863H1396V865H1492V863Z" fill="#D0D5DD" mask="url(#path-289-inside-144_1614_34)"/>
<mask id="path-291-inside-145_1614_34" fill="white">
<path d="M-44 864H52V960H-44V864Z"/>
</mask>
<path d="M52 960V961H53V960H52ZM51 864V960H53V864H51ZM52 959H-44V961H52V959Z" fill="#D0D5DD" mask="url(#path-291-inside-145_1614_34)"/>
<mask id="path-293-inside-146_1614_34" fill="white">
<path d="M52 864H148V960H52V864Z"/>
</mask>
<path d="M148 960V961H149V960H148ZM147 864V960H149V864H147ZM148 959H52V961H148V959Z" fill="#D0D5DD" mask="url(#path-293-inside-146_1614_34)"/>
<mask id="path-295-inside-147_1614_34" fill="white">
<path d="M148 864H244V960H148V864Z"/>
</mask>
<path d="M244 960V961H245V960H244ZM243 864V960H245V864H243ZM244 959H148V961H244V959Z" fill="#D0D5DD" mask="url(#path-295-inside-147_1614_34)"/>
<mask id="path-297-inside-148_1614_34" fill="white">
<path d="M244 864H340V960H244V864Z"/>
</mask>
<path d="M340 960V961H341V960H340ZM339 864V960H341V864H339ZM340 959H244V961H340V959Z" fill="#D0D5DD" mask="url(#path-297-inside-148_1614_34)"/>
<mask id="path-299-inside-149_1614_34" fill="white">
<path d="M340 864H436V960H340V864Z"/>
</mask>
<path d="M436 960V961H437V960H436ZM435 864V960H437V864H435ZM436 959H340V961H436V959Z" fill="#D0D5DD" mask="url(#path-299-inside-149_1614_34)"/>
<mask id="path-301-inside-150_1614_34" fill="white">
<path d="M436 864H532V960H436V864Z"/>
</mask>
<path d="M532 960V961H533V960H532ZM531 864V960H533V864H531ZM532 959H436V961H532V959Z" fill="#D0D5DD" mask="url(#path-301-inside-150_1614_34)"/>
<mask id="path-303-inside-151_1614_34" fill="white">
<path d="M532 864H628V960H532V864Z"/>
</mask>
<path d="M628 960V961H629V960H628ZM627 864V960H629V864H627ZM628 959H532V961H628V959Z" fill="#D0D5DD" mask="url(#path-303-inside-151_1614_34)"/>
<mask id="path-305-inside-152_1614_34" fill="white">
<path d="M628 864H724V960H628V864Z"/>
</mask>
<path d="M724 960V961H725V960H724ZM723 864V960H725V864H723ZM724 959H628V961H724V959Z" fill="#D0D5DD" mask="url(#path-305-inside-152_1614_34)"/>
<mask id="path-307-inside-153_1614_34" fill="white">
<path d="M724 864H820V960H724V864Z"/>
</mask>
<path d="M820 960V961H821V960H820ZM819 864V960H821V864H819ZM820 959H724V961H820V959Z" fill="#D0D5DD" mask="url(#path-307-inside-153_1614_34)"/>
<mask id="path-309-inside-154_1614_34" fill="white">
<path d="M820 864H916V960H820V864Z"/>
</mask>
<path d="M916 960V961H917V960H916ZM915 864V960H917V864H915ZM916 959H820V961H916V959Z" fill="#D0D5DD" mask="url(#path-309-inside-154_1614_34)"/>
<mask id="path-311-inside-155_1614_34" fill="white">
<path d="M916 864H1012V960H916V864Z"/>
</mask>
<path d="M1012 960V961H1013V960H1012ZM1011 864V960H1013V864H1011ZM1012 959H916V961H1012V959Z" fill="#D0D5DD" mask="url(#path-311-inside-155_1614_34)"/>
<mask id="path-313-inside-156_1614_34" fill="white">
<path d="M1012 864H1108V960H1012V864Z"/>
</mask>
<path d="M1108 960V961H1109V960H1108ZM1107 864V960H1109V864H1107ZM1108 959H1012V961H1108V959Z" fill="#D0D5DD" mask="url(#path-313-inside-156_1614_34)"/>
<mask id="path-315-inside-157_1614_34" fill="white">
<path d="M1108 864H1204V960H1108V864Z"/>
</mask>
<path d="M1204 960V961H1205V960H1204ZM1203 864V960H1205V864H1203ZM1204 959H1108V961H1204V959Z" fill="#D0D5DD" mask="url(#path-315-inside-157_1614_34)"/>
<mask id="path-317-inside-158_1614_34" fill="white">
<path d="M1204 864H1300V960H1204V864Z"/>
</mask>
<path d="M1300 960V961H1301V960H1300ZM1299 864V960H1301V864H1299ZM1300 959H1204V961H1300V959Z" fill="#D0D5DD" mask="url(#path-317-inside-158_1614_34)"/>
<mask id="path-319-inside-159_1614_34" fill="white">
<path d="M1300 864H1396V960H1300V864Z"/>
</mask>
<path d="M1396 960V961H1397V960H1396ZM1395 864V960H1397V864H1395ZM1396 959H1300V961H1396V959Z" fill="#D0D5DD" mask="url(#path-319-inside-159_1614_34)"/>
<mask id="path-321-inside-160_1614_34" fill="white">
<path d="M1396 864H1492V960H1396V864Z"/>
</mask>
<path d="M1396 864H1492V960H1396V864Z" fill="#F2F4F7"/>
<path d="M1492 960V961H1493V960H1492ZM1491 864V960H1493V864H1491ZM1492 959H1396V961H1492V959Z" fill="#D0D5DD" mask="url(#path-321-inside-160_1614_34)"/>
<mask id="path-323-inside-161_1614_34" fill="white">
<path d="M-44 960H52V1056H-44V960Z"/>
</mask>
<path d="M52 1056V1057H53V1056H52ZM51 960V1056H53V960H51ZM52 1055H-44V1057H52V1055Z" fill="#D0D5DD" mask="url(#path-323-inside-161_1614_34)"/>
<mask id="path-325-inside-162_1614_34" fill="white">
<path d="M52 960H148V1056H52V960Z"/>
</mask>
<path d="M148 1056V1057H149V1056H148ZM147 960V1056H149V960H147ZM148 1055H52V1057H148V1055Z" fill="#D0D5DD" mask="url(#path-325-inside-162_1614_34)"/>
<mask id="path-327-inside-163_1614_34" fill="white">
<path d="M148 960H244V1056H148V960Z"/>
</mask>
<path d="M244 1056V1057H245V1056H244ZM243 960V1056H245V960H243ZM244 1055H148V1057H244V1055Z" fill="#D0D5DD" mask="url(#path-327-inside-163_1614_34)"/>
<mask id="path-329-inside-164_1614_34" fill="white">
<path d="M244 960H340V1056H244V960Z"/>
</mask>
<path d="M340 1056V1057H341V1056H340ZM339 960V1056H341V960H339ZM340 1055H244V1057H340V1055Z" fill="#D0D5DD" mask="url(#path-329-inside-164_1614_34)"/>
<mask id="path-331-inside-165_1614_34" fill="white">
<path d="M340 960H436V1056H340V960Z"/>
</mask>
<path d="M340 960H436V1056H340V960Z" fill="#F2F4F7"/>
<path d="M436 1056V1057H437V1056H436ZM435 960V1056H437V960H435ZM436 1055H340V1057H436V1055Z" fill="#D0D5DD" mask="url(#path-331-inside-165_1614_34)"/>
<mask id="path-333-inside-166_1614_34" fill="white">
<path d="M436 960H532V1056H436V960Z"/>
</mask>
<path d="M532 1056V1057H533V1056H532ZM531 960V1056H533V960H531ZM532 1055H436V1057H532V1055Z" fill="#D0D5DD" mask="url(#path-333-inside-166_1614_34)"/>
<mask id="path-335-inside-167_1614_34" fill="white">
<path d="M532 960H628V1056H532V960Z"/>
</mask>
<path d="M628 1056V1057H629V1056H628ZM627 960V1056H629V960H627ZM628 1055H532V1057H628V1055Z" fill="#D0D5DD" mask="url(#path-335-inside-167_1614_34)"/>
<mask id="path-337-inside-168_1614_34" fill="white">
<path d="M628 960H724V1056H628V960Z"/>
</mask>
<path d="M724 1056V1057H725V1056H724ZM723 960V1056H725V960H723ZM724 1055H628V1057H724V1055Z" fill="#D0D5DD" mask="url(#path-337-inside-168_1614_34)"/>
<mask id="path-339-inside-169_1614_34" fill="white">
<path d="M724 960H820V1056H724V960Z"/>
</mask>
<path d="M724 960H820V1056H724V960Z" fill="#F2F4F7"/>
<path d="M820 1056V1057H821V1056H820ZM819 960V1056H821V960H819ZM820 1055H724V1057H820V1055Z" fill="#D0D5DD" mask="url(#path-339-inside-169_1614_34)"/>
<mask id="path-341-inside-170_1614_34" fill="white">
<path d="M820 960H916V1056H820V960Z"/>
</mask>
<path d="M916 1056V1057H917V1056H916ZM915 960V1056H917V960H915ZM916 1055H820V1057H916V1055Z" fill="#D0D5DD" mask="url(#path-341-inside-170_1614_34)"/>
<mask id="path-343-inside-171_1614_34" fill="white">
<path d="M916 960H1012V1056H916V960Z"/>
</mask>
<path d="M1012 1056V1057H1013V1056H1012ZM1011 960V1056H1013V960H1011ZM1012 1055H916V1057H1012V1055Z" fill="#D0D5DD" mask="url(#path-343-inside-171_1614_34)"/>
<mask id="path-345-inside-172_1614_34" fill="white">
<path d="M1012 960H1108V1056H1012V960Z"/>
</mask>
<path d="M1108 1056V1057H1109V1056H1108ZM1107 960V1056H1109V960H1107ZM1108 1055H1012V1057H1108V1055Z" fill="#D0D5DD" mask="url(#path-345-inside-172_1614_34)"/>
<mask id="path-347-inside-173_1614_34" fill="white">
<path d="M1108 960H1204V1056H1108V960Z"/>
</mask>
<path d="M1204 1056V1057H1205V1056H1204ZM1203 960V1056H1205V960H1203ZM1204 1055H1108V1057H1204V1055Z" fill="#D0D5DD" mask="url(#path-347-inside-173_1614_34)"/>
<mask id="path-349-inside-174_1614_34" fill="white">
<path d="M1204 960H1300V1056H1204V960Z"/>
</mask>
<path d="M1300 1056V1057H1301V1056H1300ZM1299 960V1056H1301V960H1299ZM1300 1055H1204V1057H1300V1055Z" fill="#D0D5DD" mask="url(#path-349-inside-174_1614_34)"/>
<mask id="path-351-inside-175_1614_34" fill="white">
<path d="M1300 960H1396V1056H1300V960Z"/>
</mask>
<path d="M1396 1056V1057H1397V1056H1396ZM1395 960V1056H1397V960H1395ZM1396 1055H1300V1057H1396V1055Z" fill="#D0D5DD" mask="url(#path-351-inside-175_1614_34)"/>
<mask id="path-353-inside-176_1614_34" fill="white">
<path d="M1396 960H1492V1056H1396V960Z"/>
</mask>
<path d="M1492 1056V1057H1493V1056H1492ZM1491 960V1056H1493V960H1491ZM1492 1055H1396V1057H1492V1055Z" fill="#D0D5DD" mask="url(#path-353-inside-176_1614_34)"/>
<mask id="path-355-inside-177_1614_34" fill="white">
<path d="M-44 1056H52V1152H-44V1056Z"/>
</mask>
<path d="M-44 1056H52V1152H-44V1056Z" fill="#F2F4F7"/>
<path d="M52 1152V1153H53V1152H52ZM51 1056V1152H53V1056H51ZM52 1151H-44V1153H52V1151Z" fill="#D0D5DD" mask="url(#path-355-inside-177_1614_34)"/>
<mask id="path-357-inside-178_1614_34" fill="white">
<path d="M52 1056H148V1152H52V1056Z"/>
</mask>
<path d="M148 1152V1153H149V1152H148ZM147 1056V1152H149V1056H147ZM148 1151H52V1153H148V1151Z" fill="#D0D5DD" mask="url(#path-357-inside-178_1614_34)"/>
<mask id="path-359-inside-179_1614_34" fill="white">
<path d="M148 1056H244V1152H148V1056Z"/>
</mask>
<path d="M244 1152V1153H245V1152H244ZM243 1056V1152H245V1056H243ZM244 1151H148V1153H244V1151Z" fill="#D0D5DD" mask="url(#path-359-inside-179_1614_34)"/>
<mask id="path-361-inside-180_1614_34" fill="white">
<path d="M244 1056H340V1152H244V1056Z"/>
</mask>
<path d="M340 1152V1153H341V1152H340ZM339 1056V1152H341V1056H339ZM340 1151H244V1153H340V1151Z" fill="#D0D5DD" mask="url(#path-361-inside-180_1614_34)"/>
<mask id="path-363-inside-181_1614_34" fill="white">
<path d="M340 1056H436V1152H340V1056Z"/>
</mask>
<path d="M436 1152V1153H437V1152H436ZM435 1056V1152H437V1056H435ZM436 1151H340V1153H436V1151Z" fill="#D0D5DD" mask="url(#path-363-inside-181_1614_34)"/>
<mask id="path-365-inside-182_1614_34" fill="white">
<path d="M436 1056H532V1152H436V1056Z"/>
</mask>
<path d="M532 1152V1153H533V1152H532ZM531 1056V1152H533V1056H531ZM532 1151H436V1153H532V1151Z" fill="#D0D5DD" mask="url(#path-365-inside-182_1614_34)"/>
<mask id="path-367-inside-183_1614_34" fill="white">
<path d="M532 1056H628V1152H532V1056Z"/>
</mask>
<path d="M628 1152V1153H629V1152H628ZM627 1056V1152H629V1056H627ZM628 1151H532V1153H628V1151Z" fill="#D0D5DD" mask="url(#path-367-inside-183_1614_34)"/>
<mask id="path-369-inside-184_1614_34" fill="white">
<path d="M628 1056H724V1152H628V1056Z"/>
</mask>
<path d="M724 1152V1153H725V1152H724ZM723 1056V1152H725V1056H723ZM724 1151H628V1153H724V1151Z" fill="#D0D5DD" mask="url(#path-369-inside-184_1614_34)"/>
<mask id="path-371-inside-185_1614_34" fill="white">
<path d="M724 1056H820V1152H724V1056Z"/>
</mask>
<path d="M820 1152V1153H821V1152H820ZM819 1056V1152H821V1056H819ZM820 1151H724V1153H820V1151Z" fill="#D0D5DD" mask="url(#path-371-inside-185_1614_34)"/>
<mask id="path-373-inside-186_1614_34" fill="white">
<path d="M820 1056H916V1152H820V1056Z"/>
</mask>
<path d="M916 1152V1153H917V1152H916ZM915 1056V1152H917V1056H915ZM916 1151H820V1153H916V1151Z" fill="#D0D5DD" mask="url(#path-373-inside-186_1614_34)"/>
<mask id="path-375-inside-187_1614_34" fill="white">
<path d="M916 1056H1012V1152H916V1056Z"/>
</mask>
<path d="M1012 1152V1153H1013V1152H1012ZM1011 1056V1152H1013V1056H1011ZM1012 1151H916V1153H1012V1151Z" fill="#D0D5DD" mask="url(#path-375-inside-187_1614_34)"/>
<mask id="path-377-inside-188_1614_34" fill="white">
<path d="M1012 1056H1108V1152H1012V1056Z"/>
</mask>
<path d="M1108 1152V1153H1109V1152H1108ZM1107 1056V1152H1109V1056H1107ZM1108 1151H1012V1153H1108V1151Z" fill="#D0D5DD" mask="url(#path-377-inside-188_1614_34)"/>
<mask id="path-379-inside-189_1614_34" fill="white">
<path d="M1108 1056H1204V1152H1108V1056Z"/>
</mask>
<path d="M1108 1056H1204V1152H1108V1056Z" fill="#F2F4F7"/>
<path d="M1204 1152V1153H1205V1152H1204ZM1203 1056V1152H1205V1056H1203ZM1204 1151H1108V1153H1204V1151Z" fill="#D0D5DD" mask="url(#path-379-inside-189_1614_34)"/>
<mask id="path-381-inside-190_1614_34" fill="white">
<path d="M1204 1056H1300V1152H1204V1056Z"/>
</mask>
<path d="M1300 1152V1153H1301V1152H1300ZM1299 1056V1152H1301V1056H1299ZM1300 1151H1204V1153H1300V1151Z" fill="#D0D5DD" mask="url(#path-381-inside-190_1614_34)"/>
<mask id="path-383-inside-191_1614_34" fill="white">
<path d="M1300 1056H1396V1152H1300V1056Z"/>
</mask>
<path d="M1396 1152V1153H1397V1152H1396ZM1395 1056V1152H1397V1056H1395ZM1396 1151H1300V1153H1396V1151Z" fill="#D0D5DD" mask="url(#path-383-inside-191_1614_34)"/>
<mask id="path-385-inside-192_1614_34" fill="white">
<path d="M1396 1056H1492V1152H1396V1056Z"/>
</mask>
<path d="M1492 1152V1153H1493V1152H1492ZM1491 1056V1152H1493V1056H1491ZM1492 1151H1396V1153H1492V1151Z" fill="#D0D5DD" mask="url(#path-385-inside-192_1614_34)"/>
<mask id="path-387-inside-193_1614_34" fill="white">
<path d="M-44 1152H52V1248H-44V1152Z"/>
</mask>
<path d="M52 1248V1249H53V1248H52ZM51 1152V1248H53V1152H51ZM52 1247H-44V1249H52V1247Z" fill="#D0D5DD" mask="url(#path-387-inside-193_1614_34)"/>
<mask id="path-389-inside-194_1614_34" fill="white">
<path d="M52 1152H148V1248H52V1152Z"/>
</mask>
<path d="M148 1248V1249H149V1248H148ZM147 1152V1248H149V1152H147ZM148 1247H52V1249H148V1247Z" fill="#D0D5DD" mask="url(#path-389-inside-194_1614_34)"/>
<mask id="path-391-inside-195_1614_34" fill="white">
<path d="M148 1152H244V1248H148V1152Z"/>
</mask>
<path d="M244 1248V1249H245V1248H244ZM243 1152V1248H245V1152H243ZM244 1247H148V1249H244V1247Z" fill="#D0D5DD" mask="url(#path-391-inside-195_1614_34)"/>
<mask id="path-393-inside-196_1614_34" fill="white">
<path d="M244 1152H340V1248H244V1152Z"/>
</mask>
<path d="M340 1248V1249H341V1248H340ZM339 1152V1248H341V1152H339ZM340 1247H244V1249H340V1247Z" fill="#D0D5DD" mask="url(#path-393-inside-196_1614_34)"/>
<mask id="path-395-inside-197_1614_34" fill="white">
<path d="M340 1152H436V1248H340V1152Z"/>
</mask>
<path d="M436 1248V1249H437V1248H436ZM435 1152V1248H437V1152H435ZM436 1247H340V1249H436V1247Z" fill="#D0D5DD" mask="url(#path-395-inside-197_1614_34)"/>
<mask id="path-397-inside-198_1614_34" fill="white">
<path d="M436 1152H532V1248H436V1152Z"/>
</mask>
<path d="M532 1248V1249H533V1248H532ZM531 1152V1248H533V1152H531ZM532 1247H436V1249H532V1247Z" fill="#D0D5DD" mask="url(#path-397-inside-198_1614_34)"/>
<mask id="path-399-inside-199_1614_34" fill="white">
<path d="M532 1152H628V1248H532V1152Z"/>
</mask>
<path d="M532 1152H628V1248H532V1152Z" fill="#F2F4F7"/>
<path d="M628 1248V1249H629V1248H628ZM627 1152V1248H629V1152H627ZM628 1247H532V1249H628V1247Z" fill="#D0D5DD" mask="url(#path-399-inside-199_1614_34)"/>
<mask id="path-401-inside-200_1614_34" fill="white">
<path d="M628 1152H724V1248H628V1152Z"/>
</mask>
<path d="M724 1248V1249H725V1248H724ZM723 1152V1248H725V1152H723ZM724 1247H628V1249H724V1247Z" fill="#D0D5DD" mask="url(#path-401-inside-200_1614_34)"/>
<mask id="path-403-inside-201_1614_34" fill="white">
<path d="M724 1152H820V1248H724V1152Z"/>
</mask>
<path d="M820 1248V1249H821V1248H820ZM819 1152V1248H821V1152H819ZM820 1247H724V1249H820V1247Z" fill="#D0D5DD" mask="url(#path-403-inside-201_1614_34)"/>
<mask id="path-405-inside-202_1614_34" fill="white">
<path d="M820 1152H916V1248H820V1152Z"/>
</mask>
<path d="M916 1248V1249H917V1248H916ZM915 1152V1248H917V1152H915ZM916 1247H820V1249H916V1247Z" fill="#D0D5DD" mask="url(#path-405-inside-202_1614_34)"/>
<mask id="path-407-inside-203_1614_34" fill="white">
<path d="M916 1152H1012V1248H916V1152Z"/>
</mask>
<path d="M1012 1248V1249H1013V1248H1012ZM1011 1152V1248H1013V1152H1011ZM1012 1247H916V1249H1012V1247Z" fill="#D0D5DD" mask="url(#path-407-inside-203_1614_34)"/>
<mask id="path-409-inside-204_1614_34" fill="white">
<path d="M1012 1152H1108V1248H1012V1152Z"/>
</mask>
<path d="M1108 1248V1249H1109V1248H1108ZM1107 1152V1248H1109V1152H1107ZM1108 1247H1012V1249H1108V1247Z" fill="#D0D5DD" mask="url(#path-409-inside-204_1614_34)"/>
<mask id="path-411-inside-205_1614_34" fill="white">
<path d="M1108 1152H1204V1248H1108V1152Z"/>
</mask>
<path d="M1204 1248V1249H1205V1248H1204ZM1203 1152V1248H1205V1152H1203ZM1204 1247H1108V1249H1204V1247Z" fill="#D0D5DD" mask="url(#path-411-inside-205_1614_34)"/>
<mask id="path-413-inside-206_1614_34" fill="white">
<path d="M1204 1152H1300V1248H1204V1152Z"/>
</mask>
<path d="M1300 1248V1249H1301V1248H1300ZM1299 1152V1248H1301V1152H1299ZM1300 1247H1204V1249H1300V1247Z" fill="#D0D5DD" mask="url(#path-413-inside-206_1614_34)"/>
<mask id="path-415-inside-207_1614_34" fill="white">
<path d="M1300 1152H1396V1248H1300V1152Z"/>
</mask>
<path d="M1396 1248V1249H1397V1248H1396ZM1395 1152V1248H1397V1152H1395ZM1396 1247H1300V1249H1396V1247Z" fill="#D0D5DD" mask="url(#path-415-inside-207_1614_34)"/>
<mask id="path-417-inside-208_1614_34" fill="white">
<path d="M1396 1152H1492V1248H1396V1152Z"/>
</mask>
<path d="M1492 1248V1249H1493V1248H1492ZM1491 1152V1248H1493V1152H1491ZM1492 1247H1396V1249H1492V1247Z" fill="#D0D5DD" mask="url(#path-417-inside-208_1614_34)"/>
<mask id="path-419-inside-209_1614_34" fill="white">
<path d="M-44 1248H52V1344H-44V1248Z"/>
</mask>
<path d="M52 1344V1345H53V1344H52ZM51 1248V1344H53V1248H51ZM52 1343H-44V1345H52V1343Z" fill="#D0D5DD" mask="url(#path-419-inside-209_1614_34)"/>
<mask id="path-421-inside-210_1614_34" fill="white">
<path d="M52 1248H148V1344H52V1248Z"/>
</mask>
<path d="M148 1344V1345H149V1344H148ZM147 1248V1344H149V1248H147ZM148 1343H52V1345H148V1343Z" fill="#D0D5DD" mask="url(#path-421-inside-210_1614_34)"/>
<mask id="path-423-inside-211_1614_34" fill="white">
<path d="M148 1248H244V1344H148V1248Z"/>
</mask>
<path d="M244 1344V1345H245V1344H244ZM243 1248V1344H245V1248H243ZM244 1343H148V1345H244V1343Z" fill="#D0D5DD" mask="url(#path-423-inside-211_1614_34)"/>
<mask id="path-425-inside-212_1614_34" fill="white">
<path d="M244 1248H340V1344H244V1248Z"/>
</mask>
<path d="M244 1248H340V1344H244V1248Z" fill="#F2F4F7"/>
<path d="M340 1344V1345H341V1344H340ZM339 1248V1344H341V1248H339ZM340 1343H244V1345H340V1343Z" fill="#D0D5DD" mask="url(#path-425-inside-212_1614_34)"/>
<mask id="path-427-inside-213_1614_34" fill="white">
<path d="M340 1248H436V1344H340V1248Z"/>
</mask>
<path d="M436 1344V1345H437V1344H436ZM435 1248V1344H437V1248H435ZM436 1343H340V1345H436V1343Z" fill="#D0D5DD" mask="url(#path-427-inside-213_1614_34)"/>
<mask id="path-429-inside-214_1614_34" fill="white">
<path d="M436 1248H532V1344H436V1248Z"/>
</mask>
<path d="M532 1344V1345H533V1344H532ZM531 1248V1344H533V1248H531ZM532 1343H436V1345H532V1343Z" fill="#D0D5DD" mask="url(#path-429-inside-214_1614_34)"/>
<mask id="path-431-inside-215_1614_34" fill="white">
<path d="M532 1248H628V1344H532V1248Z"/>
</mask>
<path d="M628 1344V1345H629V1344H628ZM627 1248V1344H629V1248H627ZM628 1343H532V1345H628V1343Z" fill="#D0D5DD" mask="url(#path-431-inside-215_1614_34)"/>
<mask id="path-433-inside-216_1614_34" fill="white">
<path d="M628 1248H724V1344H628V1248Z"/>
</mask>
<path d="M724 1344V1345H725V1344H724ZM723 1248V1344H725V1248H723ZM724 1343H628V1345H724V1343Z" fill="#D0D5DD" mask="url(#path-433-inside-216_1614_34)"/>
<mask id="path-435-inside-217_1614_34" fill="white">
<path d="M724 1248H820V1344H724V1248Z"/>
</mask>
<path d="M820 1344V1345H821V1344H820ZM819 1248V1344H821V1248H819ZM820 1343H724V1345H820V1343Z" fill="#D0D5DD" mask="url(#path-435-inside-217_1614_34)"/>
<mask id="path-437-inside-218_1614_34" fill="white">
<path d="M820 1248H916V1344H820V1248Z"/>
</mask>
<path d="M820 1248H916V1344H820V1248Z" fill="#F2F4F7"/>
<path d="M916 1344V1345H917V1344H916ZM915 1248V1344H917V1248H915ZM916 1343H820V1345H916V1343Z" fill="#D0D5DD" mask="url(#path-437-inside-218_1614_34)"/>
<mask id="path-439-inside-219_1614_34" fill="white">
<path d="M916 1248H1012V1344H916V1248Z"/>
</mask>
<path d="M1012 1344V1345H1013V1344H1012ZM1011 1248V1344H1013V1248H1011ZM1012 1343H916V1345H1012V1343Z" fill="#D0D5DD" mask="url(#path-439-inside-219_1614_34)"/>
<mask id="path-441-inside-220_1614_34" fill="white">
<path d="M1012 1248H1108V1344H1012V1248Z"/>
</mask>
<path d="M1108 1344V1345H1109V1344H1108ZM1107 1248V1344H1109V1248H1107ZM1108 1343H1012V1345H1108V1343Z" fill="#D0D5DD" mask="url(#path-441-inside-220_1614_34)"/>
<mask id="path-443-inside-221_1614_34" fill="white">
<path d="M1108 1248H1204V1344H1108V1248Z"/>
</mask>
<path d="M1204 1344V1345H1205V1344H1204ZM1203 1248V1344H1205V1248H1203ZM1204 1343H1108V1345H1204V1343Z" fill="#D0D5DD" mask="url(#path-443-inside-221_1614_34)"/>
<mask id="path-445-inside-222_1614_34" fill="white">
<path d="M1204 1248H1300V1344H1204V1248Z"/>
</mask>
<path d="M1300 1344V1345H1301V1344H1300ZM1299 1248V1344H1301V1248H1299ZM1300 1343H1204V1345H1300V1343Z" fill="#D0D5DD" mask="url(#path-445-inside-222_1614_34)"/>
<mask id="path-447-inside-223_1614_34" fill="white">
<path d="M1300 1248H1396V1344H1300V1248Z"/>
</mask>
<path d="M1396 1344V1345H1397V1344H1396ZM1395 1248V1344H1397V1248H1395ZM1396 1343H1300V1345H1396V1343Z" fill="#D0D5DD" mask="url(#path-447-inside-223_1614_34)"/>
<mask id="path-449-inside-224_1614_34" fill="white">
<path d="M1396 1248H1492V1344H1396V1248Z"/>
</mask>
<path d="M1492 1344V1345H1493V1344H1492ZM1491 1248V1344H1493V1248H1491ZM1492 1343H1396V1345H1492V1343Z" fill="#D0D5DD" mask="url(#path-449-inside-224_1614_34)"/>
<mask id="path-451-inside-225_1614_34" fill="white">
<path d="M-44 1344H52V1440H-44V1344Z"/>
</mask>
<path d="M52 1440V1441H53V1440H52ZM51 1344V1440H53V1344H51ZM52 1439H-44V1441H52V1439Z" fill="#D0D5DD" mask="url(#path-451-inside-225_1614_34)"/>
<mask id="path-453-inside-226_1614_34" fill="white">
<path d="M52 1344H148V1440H52V1344Z"/>
</mask>
<path d="M52 1344H148V1440H52V1344Z" fill="#F2F4F7"/>
<path d="M148 1440V1441H149V1440H148ZM147 1344V1440H149V1344H147ZM148 1439H52V1441H148V1439Z" fill="#D0D5DD" mask="url(#path-453-inside-226_1614_34)"/>
<mask id="path-455-inside-227_1614_34" fill="white">
<path d="M148 1344H244V1440H148V1344Z"/>
</mask>
<path d="M244 1440V1441H245V1440H244ZM243 1344V1440H245V1344H243ZM244 1439H148V1441H244V1439Z" fill="#D0D5DD" mask="url(#path-455-inside-227_1614_34)"/>
<mask id="path-457-inside-228_1614_34" fill="white">
<path d="M244 1344H340V1440H244V1344Z"/>
</mask>
<path d="M340 1440V1441H341V1440H340ZM339 1344V1440H341V1344H339ZM340 1439H244V1441H340V1439Z" fill="#D0D5DD" mask="url(#path-457-inside-228_1614_34)"/>
<mask id="path-459-inside-229_1614_34" fill="white">
<path d="M340 1344H436V1440H340V1344Z"/>
</mask>
<path d="M436 1440V1441H437V1440H436ZM435 1344V1440H437V1344H435ZM436 1439H340V1441H436V1439Z" fill="#D0D5DD" mask="url(#path-459-inside-229_1614_34)"/>
<mask id="path-461-inside-230_1614_34" fill="white">
<path d="M436 1344H532V1440H436V1344Z"/>
</mask>
<path d="M532 1440V1441H533V1440H532ZM531 1344V1440H533V1344H531ZM532 1439H436V1441H532V1439Z" fill="#D0D5DD" mask="url(#path-461-inside-230_1614_34)"/>
<mask id="path-463-inside-231_1614_34" fill="white">
<path d="M532 1344H628V1440H532V1344Z"/>
</mask>
<path d="M628 1440V1441H629V1440H628ZM627 1344V1440H629V1344H627ZM628 1439H532V1441H628V1439Z" fill="#D0D5DD" mask="url(#path-463-inside-231_1614_34)"/>
<mask id="path-465-inside-232_1614_34" fill="white">
<path d="M628 1344H724V1440H628V1344Z"/>
</mask>
<path d="M724 1440V1441H725V1440H724ZM723 1344V1440H725V1344H723ZM724 1439H628V1441H724V1439Z" fill="#D0D5DD" mask="url(#path-465-inside-232_1614_34)"/>
<mask id="path-467-inside-233_1614_34" fill="white">
<path d="M724 1344H820V1440H724V1344Z"/>
</mask>
<path d="M820 1440V1441H821V1440H820ZM819 1344V1440H821V1344H819ZM820 1439H724V1441H820V1439Z" fill="#D0D5DD" mask="url(#path-467-inside-233_1614_34)"/>
<mask id="path-469-inside-234_1614_34" fill="white">
<path d="M820 1344H916V1440H820V1344Z"/>
</mask>
<path d="M916 1440V1441H917V1440H916ZM915 1344V1440H917V1344H915ZM916 1439H820V1441H916V1439Z" fill="#D0D5DD" mask="url(#path-469-inside-234_1614_34)"/>
<mask id="path-471-inside-235_1614_34" fill="white">
<path d="M916 1344H1012V1440H916V1344Z"/>
</mask>
<path d="M1012 1440V1441H1013V1440H1012ZM1011 1344V1440H1013V1344H1011ZM1012 1439H916V1441H1012V1439Z" fill="#D0D5DD" mask="url(#path-471-inside-235_1614_34)"/>
<mask id="path-473-inside-236_1614_34" fill="white">
<path d="M1012 1344H1108V1440H1012V1344Z"/>
</mask>
<path d="M1108 1440V1441H1109V1440H1108ZM1107 1344V1440H1109V1344H1107ZM1108 1439H1012V1441H1108V1439Z" fill="#D0D5DD" mask="url(#path-473-inside-236_1614_34)"/>
<mask id="path-475-inside-237_1614_34" fill="white">
<path d="M1108 1344H1204V1440H1108V1344Z"/>
</mask>
<path d="M1204 1440V1441H1205V1440H1204ZM1203 1344V1440H1205V1344H1203ZM1204 1439H1108V1441H1204V1439Z" fill="#D0D5DD" mask="url(#path-475-inside-237_1614_34)"/>
<mask id="path-477-inside-238_1614_34" fill="white">
<path d="M1204 1344H1300V1440H1204V1344Z"/>
</mask>
<path d="M1300 1440V1441H1301V1440H1300ZM1299 1344V1440H1301V1344H1299ZM1300 1439H1204V1441H1300V1439Z" fill="#D0D5DD" mask="url(#path-477-inside-238_1614_34)"/>
<mask id="path-479-inside-239_1614_34" fill="white">
<path d="M1300 1344H1396V1440H1300V1344Z"/>
</mask>
<path d="M1300 1344H1396V1440H1300V1344Z" fill="#F2F4F7"/>
<path d="M1396 1440V1441H1397V1440H1396ZM1395 1344V1440H1397V1344H1395ZM1396 1439H1300V1441H1396V1439Z" fill="#D0D5DD" mask="url(#path-479-inside-239_1614_34)"/>
<mask id="path-481-inside-240_1614_34" fill="white">
<path d="M1396 1344H1492V1440H1396V1344Z"/>
</mask>
<path d="M1492 1440V1441H1493V1440H1492ZM1491 1344V1440H1493V1344H1491ZM1492 1439H1396V1441H1492V1439Z" fill="#D0D5DD" mask="url(#path-481-inside-240_1614_34)"/>
</g>
<rect x="-235.5" y="0.5" width="1919" height="1439" stroke="#D0D5DD"/>
<defs>
<clipPath id="clip0_1614_34">
<rect x="-236" width="1920" height="1440" fill="white"/>
</clipPath>
</defs>
</svg>
